<?xml version="1.0" encoding="UTF-8" standalone="no"?>
<svg width="40px" height="40px" viewBox="0 0 40 40" version="1.1" xmlns="http://www.w3.org/2000/svg" xmlns:xlink="http://www.w3.org/1999/xlink" xmlns:sketch="http://www.bohemiancoding.com/sketch/ns">
    <!-- Generator: Sketch 3.3.3 (12081) - http://www.bohemiancoding.com/sketch -->
    <title>32</title>
    <desc>Created with Sketch.</desc>
    <defs></defs>
    <g id="Page-1" stroke="none" stroke-width="1" fill="none" fill-rule="evenodd" sketch:type="MSPage">
        <g id="32" sketch:type="MSArtboardGroup" fill="#000000">
            <g id="select" sketch:type="MSLayerGroup" transform="translate(7.000000, 12.407830)">
                <g id="interface_-_arrow_bottom" sketch:type="MSShapeGroup">
                    <path d="M25.6999184,0.314841762 C25.2969821,-0.0880946166 24.643801,-0.0880946166 24.2408646,0.314841762 L13.0180261,12.572633 L1.80367047,0.319083197 C1.40073409,-0.0838531811 0.747553018,-0.0838531811 0.344616639,0.319083197 C-0.058319739,0.722019576 -0.058319739,1.37520065 0.344616639,1.78237847 L12.0255302,14.5406166 C12.0764274,14.6636183 12.1485318,14.7781794 12.2460848,14.87569 C12.4581566,15.0877618 12.7380914,15.1810734 13.0137847,15.1683067 C13.2937194,15.1810734 13.5778532,15.0877618 13.789925,14.87569 C13.8917194,14.7738956 13.9680653,14.6593344 14.0147635,14.5320914 L25.6914356,1.77385318 C26.098571,1.37520065 26.098571,0.722019576 25.6999184,0.314841762 L25.6999184,0.314841762 Z" id="Shape"></path>
                </g>
            </g>
        </g>
    </g>
</svg>